<?xml version="1.0" standalone="no"?>
<!DOCTYPE svg PUBLIC "-//W3C//DTD SVG 20010904//EN"
 "http://www.w3.org/TR/2001/REC-SVG-20010904/DTD/svg10.dtd">
<svg version="1.0" xmlns="http://www.w3.org/2000/svg"
 width="708.000000pt" height="1280.000000pt" viewBox="0 0 708.000000 1280.000000"
 preserveAspectRatio="xMidYMid meet">
<metadata>
Created by potrace 1.15, written by Peter Selinger 2001-2017
</metadata>
<g transform="translate(0.000000,1280.000000) scale(0.100000,-0.100000)"
fill="#000000" stroke="none">
<path d="M3240 12749 c-183 -109 -465 -306 -680 -473 -811 -630 -1405 -1322
-1755 -2041 -194 -400 -304 -781 -346 -1200 -15 -152 -7 -615 16 -850 96
-1017 378 -2359 855 -4071 50 -176 90 -326 90 -333 0 -9 -1019 -1086 -1317
-1391 l-73 -76 -16 -1123 c-8 -618 -12 -1126 -9 -1130 4 -3 348 -10 764 -14
l758 -9 445 311 446 311 411 0 411 0 0 -285 0 -285 230 0 230 0 0 285 0 285
389 0 389 0 12 35 c6 19 13 35 15 35 2 0 239 -164 527 -366 l523 -365 480 6
c264 3 608 8 763 11 l284 6 -6 417 c-4 229 -11 735 -17 1126 l-9 710 -44 45
c-749 781 -1506 1584 -1506 1596 0 8 33 135 74 282 397 1422 691 2769 796
3647 54 449 76 964 50 1210 -84 827 -485 1628 -1202 2405 -423 459 -985 920
-1550 1273 l-107 67 -118 0 -118 0 -85 -51z"/>
</g>
</svg>
